<?xml version="1.0" encoding="utf-8"?>
<!-- Generator: Adobe Illustrator 16.0.0, SVG Export Plug-In . SVG Version: 6.00 Build 0)  -->
<!DOCTYPE svg PUBLIC "-//W3C//DTD SVG 1.1//EN" "http://www.w3.org/Graphics/SVG/1.1/DTD/svg11.dtd">
<svg version="1.1" id="img" xmlns="http://www.w3.org/2000/svg" xmlns:xlink="http://www.w3.org/1999/xlink" x="0px" y="0px"
	 width="167.5px" height="318.5px" viewBox="0 0 167.5 318.5" enable-background="new 0 0 167.5 318.5" xml:space="preserve">
<path fill="#FFFFFF" stroke="#FFFFFF" stroke-miterlimit="10" d="M165.498,177.5c-0.037-36.089-23.01-66.764-55.048-78.128
	c15.134-9.279,25.232-25.97,25.232-45.022c0-29.148-23.63-52.778-52.778-52.778c-29.148,0-52.777,23.629-52.777,52.778
	c0,19.081,10.127,35.794,25.298,45.065c-31.973,11.4-54.886,42.044-54.923,78.086H0.5v141h165v-141H165.498z"/>
<path fill="#FFFFFF" stroke="#FFFFFF" stroke-miterlimit="10" d="M167.498,177.5c-0.037-36.089-23.01-66.764-55.048-78.128
	c15.134-9.279,25.232-25.97,25.232-45.022c0-29.148-23.63-52.778-52.778-52.778c-29.148,0-52.777,23.629-52.777,52.778
	c0,19.081,10.127,35.794,25.298,45.065c-31.973,11.4-54.886,42.044-54.923,78.086H2.5v141h165v-141H167.498z"/>
</svg>
