<?xml version="1.0" encoding="utf-8"?>
<!-- Generator: Adobe Illustrator 16.0.0, SVG Export Plug-In . SVG Version: 6.00 Build 0)  -->
<!DOCTYPE svg PUBLIC "-//W3C//DTD SVG 1.1//EN" "http://www.w3.org/Graphics/SVG/1.1/DTD/svg11.dtd">
<svg version="1.1" id="img" xmlns="http://www.w3.org/2000/svg" xmlns:xlink="http://www.w3.org/1999/xlink" x="0px" y="0px"
	 width="167.5px" height="318.5px" viewBox="0 0 167.5 318.5" enable-background="new 0 0 167.5 318.5" xml:space="preserve">
<path fill="#FFFFFF" d="M100.226,191.456H48.438c-8.326,0-15.076-13.079-15.076-29.211V80.082H17.487
	c-8.327,0-15.077,13.077-15.077,29.21v84.193c0,16.13,6.75,29.209,15.077,29.209h5.878l-11.205,54.323l47.752-54.323h51.788
	c3.744,0,7.163-2.659,9.799-7.038L100.226,191.456z"/>
<path fill="#FFFFFF" d="M150.013,41.482H55.799c-8.326,0-15.076,13.077-15.076,29.209v84.194c0,16.135,6.75,29.214,15.076,29.214
	h51.788l47.752,54.318L144.134,184.1h5.879c8.327,0,15.077-13.079,15.077-29.214V70.691C165.09,54.56,158.34,41.482,150.013,41.482z
	 M72.938,127.73c-4.742,0-8.586-5.049-8.586-11.278c0-6.229,3.844-11.279,8.586-11.279s8.586,5.049,8.586,11.279
	C81.524,122.681,77.68,127.73,72.938,127.73z M107.45,127.73c-4.742,0-8.586-5.049-8.586-11.278c0-6.229,3.844-11.279,8.586-11.279
	c4.741,0,8.586,5.049,8.586,11.279C116.036,122.681,112.191,127.73,107.45,127.73z M141.962,127.73
	c-4.742,0-8.586-5.049-8.586-11.278c0-6.229,3.844-11.279,8.586-11.279c4.741,0,8.586,5.049,8.586,11.279
	C150.548,122.681,146.703,127.73,141.962,127.73z"/>
</svg>
