<?xml version="1.0" encoding="utf-8"?>
<!-- Generator: Adobe Illustrator 16.0.0, SVG Export Plug-In . SVG Version: 6.00 Build 0)  -->
<!DOCTYPE svg PUBLIC "-//W3C//DTD SVG 1.1//EN" "http://www.w3.org/Graphics/SVG/1.1/DTD/svg11.dtd">
<svg version="1.1" id="img" xmlns="http://www.w3.org/2000/svg" xmlns:xlink="http://www.w3.org/1999/xlink" x="0px" y="0px"
	 width="167.5px" height="318.5px" viewBox="0 0 167.5 318.5" enable-background="new 0 0 167.5 318.5" xml:space="preserve">
<g>
	<g>
		<path fill="#FFFFFF" d="M115.045,4.527C99.993-1.186,83.241,7.565,77.386,24.199l54.934,20.849
			C137.782,28.265,130.098,10.24,115.045,4.527z"/>
		<polygon fill="#FFFFFF" points="40.575,270.922 28.333,261.051 12.956,260.438 3.569,252.871 9.203,296.47 21.903,301.29 
			52.438,271.393 		"/>
		<polygon fill="#FFFFFF" points="75.609,29.417 3.19,243.258 15.432,253.129 30.809,253.741 43.051,263.611 58.429,264.223 
			130.848,50.381 		"/>
	</g>
	<path fill="#FFFFFF" d="M9.412,298.906c-0.053,0.127-0.107,0.252-0.151,0.385c-1.099,3.243,0.495,6.815,3.559,7.979
		c3.064,1.163,6.439-0.523,7.538-3.768c0.045-0.133,0.078-0.267,0.114-0.4L9.412,298.906z"/>
</g>
<path fill="#FFFFFF" d="M117.735,255.828c9.625-1.148,41.042-0.925,41.042-0.925s4.891-94.847,4.891-94.848
	c0,0-33.813,2.189-65.239,8.653L59.786,281.868c7.77,3.154,14.911,5.64,20.137,7.239c32.049,9.799,20.172,20.891,11.79,21.445
	c-3.991,0.266-80.692,1.479-80.692,1.479s120.666,7.984,140.421-1.847c17.988-8.952-71.431-20.338-77.369-36.793
	C68.66,258.394,105.913,257.238,117.735,255.828z"/>
</svg>
