<?xml version="1.0" encoding="utf-8"?>
<!-- Generator: Adobe Illustrator 16.0.0, SVG Export Plug-In . SVG Version: 6.00 Build 0)  -->
<!DOCTYPE svg PUBLIC "-//W3C//DTD SVG 1.1//EN" "http://www.w3.org/Graphics/SVG/1.1/DTD/svg11.dtd">
<svg version="1.1" id="img" xmlns="http://www.w3.org/2000/svg" xmlns:xlink="http://www.w3.org/1999/xlink" x="0px" y="0px"
	 width="167.5px" height="318.5px" viewBox="0 0 167.5 318.5" enable-background="new 0 0 167.5 318.5" xml:space="preserve">
<path fill="#FFFFFF" stroke="#FFFFFF" stroke-miterlimit="10" d="M154.898,166.5H90.5v-28.047c0.105-0.576,0.167-1.173,0.167-1.789
	c0-4.326-2.746-7.837-6.167-7.949V128.5H83H43.886H29c-3.038,0-5.5-3.737-5.5-8.5s2.462-8.5,5.5-8.5h14.886H83h1.5h57v-0.066
	c0.124,0.003,0.244,0.025,0.369,0.025c10.098,0,18.285-10.987,18.285-24.541c0-13.554-8.187-24.541-18.285-24.541
	c-0.125,0-0.245,0.022-0.369,0.025V62.5h-51v-24h-13v32h0.007c0.072,4.32,2.986,7.796,6.576,7.796c0.141,0,0.279-0.015,0.417-0.025
	V78.5H85h39.768H139c3.038,0,5.5,3.737,5.5,8.5s-2.462,8.5-5.5,8.5h-14.232H85h-0.5h-57v0.089c-0.239-0.012-0.474-0.048-0.715-0.048
	c-10.098,0-18.285,10.987-18.285,24.541c0,13.554,8.187,24.541,18.285,24.541c0.242,0,0.476-0.037,0.715-0.049V144.5h51v22H14.184
	c-6.96,0-12.684,8.413-12.684,18.192v115.1c0,9.779,5.724,17.708,12.684,17.708h140.714c6.959,0,12.602-7.929,12.602-17.708v-115.1
	C167.5,174.913,161.858,166.5,154.898,166.5z M70.5,251.5h-17v17h-18v-17h-16v-16h16v-17h18v17h17V251.5z M103.625,251.375
	c-5.799,0-10.5-4.701-10.5-10.5s4.701-10.5,10.5-10.5s10.5,4.701,10.5,10.5S109.424,251.375,103.625,251.375z M125.375,274.5
	c-5.868,0-10.625-4.757-10.625-10.625s4.757-10.625,10.625-10.625S136,258.007,136,263.875S131.243,274.5,125.375,274.5z
	 M125.75,230.75c-5.799,0-10.5-4.701-10.5-10.5s4.701-10.5,10.5-10.5s10.5,4.701,10.5,10.5S131.549,230.75,125.75,230.75z
	 M147.25,251.875c-5.868,0-10.625-4.757-10.625-10.625s4.757-10.625,10.625-10.625s10.625,4.757,10.625,10.625
	S153.118,251.875,147.25,251.875z"/>
</svg>
